<mxfile host="65bd71144e">
    <diagram id="ExdccTZqctQwAvQB16s_" name="Page-1">
        <mxGraphModel dx="2037" dy="1705" grid="1" gridSize="10" guides="1" tooltips="1" connect="1" arrows="1" fold="1" page="0" pageScale="1" pageWidth="827" pageHeight="1169" background="none" math="0" shadow="0">
            <root>
                <mxCell id="0"/>
                <mxCell id="1" parent="0"/>
                <mxCell id="2M91R3iAnrZrVvDSjcHK-1" value="Node" style="rounded=0;whiteSpace=wrap;html=1;fontSize=14;" parent="1" vertex="1">
                    <mxGeometry x="40" width="160" height="41" as="geometry"/>
                </mxCell>
                <mxCell id="2M91R3iAnrZrVvDSjcHK-2" value="Bootstrap node" style="rounded=0;whiteSpace=wrap;html=1;fontSize=14;" parent="1" vertex="1">
                    <mxGeometry x="400" y="2" width="160" height="39" as="geometry"/>
                </mxCell>
                <mxCell id="2M91R3iAnrZrVvDSjcHK-4" value="Target node" style="rounded=0;whiteSpace=wrap;html=1;fontSize=14;" parent="1" vertex="1">
                    <mxGeometry x="760" y="1" width="160" height="40" as="geometry"/>
                </mxCell>
                <mxCell id="2M91R3iAnrZrVvDSjcHK-28" value="" style="endArrow=none;dashed=1;html=1;fontSize=12;entryX=0.5;entryY=1;entryDx=0;entryDy=0;" parent="1" target="2M91R3iAnrZrVvDSjcHK-1" edge="1">
                    <mxGeometry width="50" height="50" relative="1" as="geometry">
                        <mxPoint x="120" y="1000" as="sourcePoint"/>
                        <mxPoint x="570" y="240" as="targetPoint"/>
                    </mxGeometry>
                </mxCell>
                <mxCell id="2M91R3iAnrZrVvDSjcHK-29" value="" style="endArrow=none;dashed=1;html=1;fontSize=12;entryX=0.5;entryY=1;entryDx=0;entryDy=0;" parent="1" target="2M91R3iAnrZrVvDSjcHK-2" edge="1">
                    <mxGeometry width="50" height="50" relative="1" as="geometry">
                        <mxPoint x="480" y="799" as="sourcePoint"/>
                        <mxPoint x="560" y="181" as="targetPoint"/>
                    </mxGeometry>
                </mxCell>
                <mxCell id="2M91R3iAnrZrVvDSjcHK-52" value="" style="endArrow=classic;html=1;fontSize=18;" parent="1" edge="1">
                    <mxGeometry x="-160" y="-61" width="50" height="50" as="geometry">
                        <mxPoint x="120" y="239" as="sourcePoint"/>
                        <mxPoint x="480" y="239" as="targetPoint"/>
                    </mxGeometry>
                </mxCell>
                <mxCell id="16" value="FINDNODE" style="edgeLabel;html=1;align=center;verticalAlign=middle;resizable=0;points=[];fontSize=17;" parent="2M91R3iAnrZrVvDSjcHK-52" vertex="1" connectable="0">
                    <mxGeometry relative="1" as="geometry">
                        <mxPoint y="-20" as="offset"/>
                    </mxGeometry>
                </mxCell>
                <mxCell id="12" value="" style="endArrow=none;dashed=1;html=1;fontSize=12;entryX=0.5;entryY=1;entryDx=0;entryDy=0;" parent="1" edge="1">
                    <mxGeometry width="50" height="50" relative="1" as="geometry">
                        <mxPoint x="839" y="799" as="sourcePoint"/>
                        <mxPoint x="839" y="41" as="targetPoint"/>
                    </mxGeometry>
                </mxCell>
                <mxCell id="13" value="Node knows Bootstrap node." style="shape=note;whiteSpace=wrap;html=1;backgroundOutline=1;darkOpacity=0.05;" parent="1" vertex="1">
                    <mxGeometry x="-60" y="-80" width="230" height="70" as="geometry"/>
                </mxCell>
                <mxCell id="14" value="Bootstrap node knows both of &quot;Node&quot; and &quot;Target node&quot;." style="shape=note;whiteSpace=wrap;html=1;backgroundOutline=1;darkOpacity=0.05;" parent="1" vertex="1">
                    <mxGeometry x="320" y="-110" width="360" height="80" as="geometry"/>
                </mxCell>
                <mxCell id="15" value="Target node knows Bootstrap node." style="shape=note;whiteSpace=wrap;html=1;backgroundOutline=1;darkOpacity=0.05;" parent="1" vertex="1">
                    <mxGeometry x="780" y="-80" width="230" height="70" as="geometry"/>
                </mxCell>
                <mxCell id="17" value="" style="endArrow=classic;html=1;fontSize=18;" parent="1" edge="1">
                    <mxGeometry x="-150" y="-51" width="50" height="50" as="geometry">
                        <mxPoint x="480" y="359" as="sourcePoint"/>
                        <mxPoint x="130" y="359" as="targetPoint"/>
                    </mxGeometry>
                </mxCell>
                <mxCell id="18" value="WHOAREYOU" style="edgeLabel;html=1;align=center;verticalAlign=middle;resizable=0;points=[];fontSize=17;" parent="17" vertex="1" connectable="0">
                    <mxGeometry relative="1" as="geometry">
                        <mxPoint y="-20" as="offset"/>
                    </mxGeometry>
                </mxCell>
                <mxCell id="21" value="" style="endArrow=classic;html=1;fontSize=18;" parent="1" edge="1">
                    <mxGeometry x="-150" y="69" width="50" height="50" as="geometry">
                        <mxPoint x="480" y="479" as="sourcePoint"/>
                        <mxPoint x="130" y="479" as="targetPoint"/>
                    </mxGeometry>
                </mxCell>
                <mxCell id="22" value="NODES" style="edgeLabel;html=1;align=center;verticalAlign=middle;resizable=0;points=[];fontSize=17;" parent="21" vertex="1" connectable="0">
                    <mxGeometry relative="1" as="geometry">
                        <mxPoint y="-20" as="offset"/>
                    </mxGeometry>
                </mxCell>
                <mxCell id="23" value="This response contains &lt;br&gt;the ENR of Target node." style="shape=note;whiteSpace=wrap;html=1;backgroundOutline=1;darkOpacity=0.05;fontStyle=1" parent="1" vertex="1">
                    <mxGeometry x="190" y="500" width="230" height="70" as="geometry"/>
                </mxCell>
                <mxCell id="25" value="&lt;span style=&quot;font-size: 12px&quot;&gt;discv5.find_node(`Target node`)&lt;/span&gt;" style="rounded=1;whiteSpace=wrap;html=1;fontSize=14;" parent="1" vertex="1">
                    <mxGeometry x="-10" y="100" width="270" height="58" as="geometry"/>
                </mxCell>
                <mxCell id="26" value="Add the NodeId of Target node into `FindeNodeQuery.closest_peers`.&lt;br&gt;(*1)" style="rounded=1;whiteSpace=wrap;html=1;fontSize=12;fontStyle=0" parent="1" vertex="1">
                    <mxGeometry x="-25" y="610" width="290" height="58" as="geometry"/>
                </mxCell>
                <mxCell id="27" value="" style="endArrow=classic;html=1;fontSize=18;" parent="1" edge="1">
                    <mxGeometry x="-160" y="620" width="50" height="50" as="geometry">
                        <mxPoint x="120" y="920" as="sourcePoint"/>
                        <mxPoint x="550" y="920" as="targetPoint"/>
                    </mxGeometry>
                </mxCell>
                <mxCell id="28" value="FINDNODE" style="edgeLabel;html=1;align=center;verticalAlign=middle;resizable=0;points=[];fontSize=17;" parent="27" vertex="1" connectable="0">
                    <mxGeometry relative="1" as="geometry">
                        <mxPoint x="-15" y="-20" as="offset"/>
                    </mxGeometry>
                </mxCell>
                <mxCell id="29" value="And then, next query iteration, take the NodeId (Target node) from `closest_peers` as destination of FINDNODE request." style="rounded=1;whiteSpace=wrap;html=1;fontSize=12;" parent="1" vertex="1">
                    <mxGeometry x="-52.5" y="680" width="345" height="98" as="geometry"/>
                </mxCell>
                <mxCell id="30" value="Attemp to build RPC Request, but &quot;Requested a node find itself&quot; error happens because the destination and target are same NodeId.&lt;br&gt;(*2)" style="rounded=1;whiteSpace=wrap;html=1;fontSize=12;fontStyle=1" parent="1" vertex="1">
                    <mxGeometry x="-101.25" y="790" width="442.5" height="90" as="geometry"/>
                </mxCell>
                <mxCell id="31" value="" style="shape=cross;whiteSpace=wrap;html=1;fontSize=12;rotation=45;fillColor=#e3c800;fontColor=#000000;strokeColor=#B09500;" parent="1" vertex="1">
                    <mxGeometry x="95" y="895.21" width="50" height="50" as="geometry"/>
                </mxCell>
            </root>
        </mxGraphModel>
    </diagram>
</mxfile>